<svg xmlns="http://www.w3.org/2000/svg" data-name="Line Expand" viewBox="0 0 64 64"><path d="M38.5 22.75h20a.75.75 0 0 0 .75-.75V6a.75.75 0 0 0-.75-.75h-20a.75.75 0 0 0-.75.75v16a.75.75 0 0 0 .75.75Zm19.25-1.5H46.121L53 13.158l4.75 5.588Zm-18.5-14.5h18.5v9.681l-4.179-4.917a.75.75 0 0 0-1.142 0l-4.757 5.6-3.642-3.644a.749.749 0 0 0-1.06 0l-3.72 3.719Zm0 12.561 4.25-4.25 3.2 3.2-2.546 2.989h-4.9Z"/><path d="M47 12.75a2.25 2.25 0 1 0-2.25-2.25A2.253 2.253 0 0 0 47 12.75Zm0-3a.75.75 0 1 1-.75.75.751.751 0 0 1 .75-.75ZM5.5 22.75h20a.75.75 0 0 0 .75-.75V6a.75.75 0 0 0-.75-.75h-20a.75.75 0 0 0-.75.75v16a.75.75 0 0 0 .75.75Zm19.25-1.5H13.121L20 13.158l4.75 5.588ZM6.25 6.75h18.5v9.681l-4.179-4.917a.75.75 0 0 0-1.142 0l-4.757 5.6-3.642-3.644a.749.749 0 0 0-1.06 0l-3.72 3.719Zm0 12.561 4.25-4.25 3.2 3.2-2.546 2.989H6.25Z"/><path d="M14 12.75a2.25 2.25 0 1 0-2.25-2.25A2.253 2.253 0 0 0 14 12.75Zm0-3a.75.75 0 1 1-.75.75.751.751 0 0 1 .75-.75ZM62.25 41V31a3.755 3.755 0 0 0-3.75-3.75h-20A3.755 3.755 0 0 0 34.75 31v10a3.748 3.748 0 0 0-1.5 3v10a.75.75 0 0 0 .75.75h1.25V58a.75.75 0 0 0 .75.75h4a.75.75 0 0 0 .75-.75v-3.25h15.5V58a.75.75 0 0 0 .75.75h4a.75.75 0 0 0 .75-.75v-3.25H63a.75.75 0 0 0 .75-.75V44a3.748 3.748 0 0 0-1.5-3Zm-26-10a2.253 2.253 0 0 1 2.25-2.25h20A2.253 2.253 0 0 1 60.75 31v9.325a3.778 3.778 0 0 0-.75-.075h-2.052a2.724 2.724 0 0 0 .3-1.25v-2a2.752 2.752 0 0 0-2.75-2.75h-14A2.752 2.752 0 0 0 38.75 37v2a2.724 2.724 0 0 0 .3 1.25H37a3.778 3.778 0 0 0-.75.075Zm20.5 6v2a1.252 1.252 0 0 1-1.25 1.25h-14A1.252 1.252 0 0 1 40.25 39v-2a1.252 1.252 0 0 1 1.25-1.25h14A1.252 1.252 0 0 1 56.75 37Zm-17.5 20.25h-2.5v-2.5h2.5Zm21 0h-2.5v-2.5h2.5Zm2-4h-27.5v-6.5h27.5Zm0-8h-27.5V44A2.253 2.253 0 0 1 37 41.75h23A2.253 2.253 0 0 1 62.25 44ZM29.25 41V31a3.755 3.755 0 0 0-3.75-3.75h-20A3.755 3.755 0 0 0 1.75 31v10a3.748 3.748 0 0 0-1.5 3v10a.75.75 0 0 0 .75.75h1.25V58a.75.75 0 0 0 .75.75h4a.75.75 0 0 0 .75-.75v-3.25h15.5V58a.75.75 0 0 0 .75.75h4a.75.75 0 0 0 .75-.75v-3.25H30a.75.75 0 0 0 .75-.75V44a3.748 3.748 0 0 0-1.5-3Zm-26-10a2.253 2.253 0 0 1 2.25-2.25h20A2.253 2.253 0 0 1 27.75 31v9.325a3.778 3.778 0 0 0-.75-.075h-2.052a2.724 2.724 0 0 0 .3-1.25v-2a2.752 2.752 0 0 0-2.75-2.75H8.5A2.752 2.752 0 0 0 5.75 37v2a2.724 2.724 0 0 0 .3 1.25H4a3.778 3.778 0 0 0-.75.075Zm20.5 6v2a1.252 1.252 0 0 1-1.25 1.25h-14A1.252 1.252 0 0 1 7.25 39v-2a1.252 1.252 0 0 1 1.25-1.25h14A1.252 1.252 0 0 1 23.75 37ZM6.25 57.25h-2.5v-2.5h2.5Zm21 0h-2.5v-2.5h2.5Zm2-4H1.75v-6.5h27.5Zm0-8H1.75V44A2.253 2.253 0 0 1 4 41.75h23A2.253 2.253 0 0 1 29.25 44Z"/></svg>