<svg xmlns="http://www.w3.org/2000/svg" id="fi_16965185" data-name="Line Expand" viewBox="0 0 64 64"><path d="M38.5,22.75h20a.75.75,0,0,0,.75-.75V6a.75.75,0,0,0-.75-.75h-20a.75.75,0,0,0-.75.75V22A.75.75,0,0,0,38.5,22.75Zm19.25-1.5H46.121L53,13.158l4.75,5.588ZM39.25,6.75h18.5v9.681l-4.179-4.917a.75.75,0,0,0-1.142,0l-4.757,5.6L44.03,13.47a.749.749,0,0,0-1.06,0l-3.72,3.719Zm0,12.561,4.25-4.25,3.2,3.2L44.154,21.25h-4.9Z"></path><path d="M47,12.75a2.25,2.25,0,1,0-2.25-2.25A2.253,2.253,0,0,0,47,12.75Zm0-3a.75.75,0,1,1-.75.75A.751.751,0,0,1,47,9.75Z"></path><path d="M5.5,22.75h20a.75.75,0,0,0,.75-.75V6a.75.75,0,0,0-.75-.75H5.5A.75.75,0,0,0,4.75,6V22A.75.75,0,0,0,5.5,22.75Zm19.25-1.5H13.121L20,13.158l4.75,5.588ZM6.25,6.75h18.5v9.681l-4.179-4.917a.75.75,0,0,0-1.142,0l-4.757,5.6L11.03,13.47a.749.749,0,0,0-1.06,0L6.25,17.189Zm0,12.561,4.25-4.25,3.2,3.2L11.154,21.25H6.25Z"></path><path d="M14,12.75a2.25,2.25,0,1,0-2.25-2.25A2.253,2.253,0,0,0,14,12.75Zm0-3a.75.75,0,1,1-.75.75A.751.751,0,0,1,14,9.75Z"></path><path d="M62.25,41V31a3.755,3.755,0,0,0-3.75-3.75h-20A3.755,3.755,0,0,0,34.75,31V41a3.748,3.748,0,0,0-1.5,3V54a.75.75,0,0,0,.75.75h1.25V58a.75.75,0,0,0,.75.75h4a.75.75,0,0,0,.75-.75V54.75h15.5V58a.75.75,0,0,0,.75.75h4a.75.75,0,0,0,.75-.75V54.75H63a.75.75,0,0,0,.75-.75V44A3.748,3.748,0,0,0,62.25,41Zm-26-10a2.253,2.253,0,0,1,2.25-2.25h20A2.253,2.253,0,0,1,60.75,31v9.325A3.778,3.778,0,0,0,60,40.25H57.948a2.724,2.724,0,0,0,.3-1.25V37a2.752,2.752,0,0,0-2.75-2.75h-14A2.752,2.752,0,0,0,38.75,37v2a2.724,2.724,0,0,0,.3,1.25H37a3.778,3.778,0,0,0-.75.075Zm20.5,6v2a1.252,1.252,0,0,1-1.25,1.25h-14A1.252,1.252,0,0,1,40.25,39V37a1.252,1.252,0,0,1,1.25-1.25h14A1.252,1.252,0,0,1,56.75,37ZM39.25,57.25h-2.5v-2.5h2.5Zm21,0h-2.5v-2.5h2.5Zm2-4H34.75v-6.5h27.5Zm0-8H34.75V44A2.253,2.253,0,0,1,37,41.75H60A2.253,2.253,0,0,1,62.25,44Z"></path><path d="M29.25,41V31a3.755,3.755,0,0,0-3.75-3.75H5.5A3.755,3.755,0,0,0,1.75,31V41a3.748,3.748,0,0,0-1.5,3V54a.75.75,0,0,0,.75.75H2.25V58a.75.75,0,0,0,.75.75H7A.75.75,0,0,0,7.75,58V54.75h15.5V58a.75.75,0,0,0,.75.75h4a.75.75,0,0,0,.75-.75V54.75H30a.75.75,0,0,0,.75-.75V44A3.748,3.748,0,0,0,29.25,41Zm-26-10A2.253,2.253,0,0,1,5.5,28.75h20A2.253,2.253,0,0,1,27.75,31v9.325A3.778,3.778,0,0,0,27,40.25H24.948a2.724,2.724,0,0,0,.3-1.25V37a2.752,2.752,0,0,0-2.75-2.75H8.5A2.752,2.752,0,0,0,5.75,37v2a2.724,2.724,0,0,0,.3,1.25H4a3.778,3.778,0,0,0-.75.075Zm20.5,6v2a1.252,1.252,0,0,1-1.25,1.25H8.5A1.252,1.252,0,0,1,7.25,39V37A1.252,1.252,0,0,1,8.5,35.75h14A1.252,1.252,0,0,1,23.75,37ZM6.25,57.25H3.75v-2.5h2.5Zm21,0h-2.5v-2.5h2.5Zm2-4H1.75v-6.5h27.5Zm0-8H1.75V44A2.253,2.253,0,0,1,4,41.75H27A2.253,2.253,0,0,1,29.25,44Z"></path></svg>