<svg id="fi_17635817" viewBox="0 0 64 64" xmlns="http://www.w3.org/2000/svg" data-name="Layer 1"><path d="m8.161 32.061h2.286l3.247 3.247c.67.67 1.04 1.562 1.04 2.51v18.633c0 3.06 2.489 5.549 5.549 5.549h8.887s.003 0 .004 0h21.729c.325 0 .63-.158.817-.423.188-.266.234-.606.125-.912l-4.19-11.775c6.493-2.227 10.945-8.384 10.945-15.345v-5.772c0-.552-.448-1-1-1h-34.122v-22.012c0-1.522-1.239-2.761-2.761-2.761h-12.556c-1.522 0-2.761 1.239-2.761 2.761v24.538c0 1.522 1.239 2.761 2.761 2.761zm8.573 24.39v-18.633c0-1.482-.577-2.876-1.625-3.924l-1.833-1.833h8.202v1.484c0 6.966 4.457 13.126 10.945 15.345l-3.953 11.109h-8.186c-1.957 0-3.549-1.592-3.549-3.549zm13.858 3.55 3.758-10.561c.016.003.032.004.048.008.476.102.962.176 1.455.233.116.013.232.024.349.035.503.047 1.011.079 1.526.079h4.623c.517 0 1.026-.032 1.529-.079.114-.011.228-.021.342-.035.495-.057.984-.132 1.461-.234.015-.003.031-.004.046-.007l3.758 10.561zm26.008-26.455c0 6.423-4.315 12.072-10.509 13.743-1.179.336-2.438.507-3.741.507h-4.623c-1.303 0-2.562-.171-3.755-.511-6.179-1.667-10.495-7.316-10.495-13.739v-1.487h33.123zm0-4.772v1.285h-33.122v-1.285zm-49.2-24.013c0-.42.341-.761.761-.761h12.556c.42 0 .761.341.761.761v23.01s0 .002 0 .002v2.288h-13.317c-.42 0-.761-.341-.761-.761z"></path><path d="m44.918 45.693c.074 0 .15-.008.226-.025 4.954-1.142 7.451-4.093 8.673-6.367.261-.487.079-1.093-.407-1.354-.488-.263-1.093-.079-1.354.407-1.027 1.911-3.137 4.392-7.361 5.365-.538.124-.874.661-.75 1.199.107.462.519.775.974.775z"></path><path d="m53.858 36.759c.069.015.139.021.207.021.463 0 .879-.323.978-.794.089-.426.113-.675.113-.675.053-.547-.346-1.036-.894-1.092s-1.037.338-1.096.886c-.002.023-.023.194-.081.47-.114.541.232 1.071.773 1.184z"></path><path d="m14.439 13.419c1.985 0 3.6-1.615 3.6-3.6s-1.615-3.6-3.6-3.6-3.6 1.615-3.6 3.6 1.615 3.6 3.6 3.6zm0-5.2c.882 0 1.6.718 1.6 1.6s-.718 1.6-1.6 1.6-1.6-.718-1.6-1.6.718-1.6 1.6-1.6z"></path></svg>