<svg xmlns="http://www.w3.org/2000/svg" width="512" height="512" data-name="Layer 3" viewBox="0 0 64 64"><path d="M61.469 60.117a3.089 3.089 0 0 1-3.94.28L55.8 59.1a5.652 5.652 0 0 0-6.6 0l-1.6 1.2a3.6 3.6 0 0 1-4.2 0l-1.6-1.2a5.652 5.652 0 0 0-6.6 0l-1.6 1.2a3.6 3.6 0 0 1-4.2 0l-1.6-1.2a5.652 5.652 0 0 0-6.6 0l-1.6 1.2a3.6 3.6 0 0 1-4.2 0l-1.6-1.2a5.652 5.652 0 0 0-6.6 0l-1.6 1.2a3.579 3.579 0 0 1-4.045.11L.444 62.073A5.622 5.622 0 0 0 6.8 61.9l1.6-1.2a3.6 3.6 0 0 1 4.2 0l1.6 1.2a5.652 5.652 0 0 0 6.6 0l1.6-1.2a3.6 3.6 0 0 1 4.2 0l1.6 1.2a5.652 5.652 0 0 0 6.6 0l1.6-1.2a3.6 3.6 0 0 1 4.2 0l1.6 1.2a5.652 5.652 0 0 0 6.6 0l1.6-1.2a3.6 3.6 0 0 1 4.2 0l1.73 1.3a5.049 5.049 0 0 0 3.008 1 4.98 4.98 0 0 0 3.545-1.468l.824-.825-1.414-1.414zM61.469 50.117a3.087 3.087 0 0 1-3.94.28l-.694-.52a10.786 10.786 0 0 0 .926-7.134 5 5 0 0 0 5.122-1.211l.824-.825-1.414-1.414-.824.824a3.089 3.089 0 0 1-3.939.28l-.889-.667A11 11 0 0 0 54 36.529V8a7 7 0 0 0-14 0v28.529a11.072 11.072 0 0 0-1.474 1.5A5.55 5.55 0 0 0 35.2 39.1l-1.6 1.2a3.6 3.6 0 0 1-4.2 0l-1.6-1.2a5.652 5.652 0 0 0-6.6 0l-1.6 1.2a3.6 3.6 0 0 1-4.2 0l-1.6-1.2a5.652 5.652 0 0 0-6.6 0l-1.6 1.2a3.577 3.577 0 0 1-4.045.11L.444 42.073A5.622 5.622 0 0 0 6.8 41.9l1.6-1.2a3.6 3.6 0 0 1 4.2 0l1.6 1.2a5.652 5.652 0 0 0 6.6 0l1.6-1.2a3.6 3.6 0 0 1 4.2 0l1.6 1.2a5.5 5.5 0 0 0 6.6 0l1.6-1.2a3.45 3.45 0 0 1 .659-.378 11 11 0 0 0-.95 6.237 10.628 10.628 0 0 0 .441 1.83 5.24 5.24 0 0 0-1.35.711l-1.6 1.2a3.6 3.6 0 0 1-4.2 0l-1.6-1.2a5.652 5.652 0 0 0-6.6 0l-1.6 1.2a3.6 3.6 0 0 1-4.2 0l-1.6-1.2a5.652 5.652 0 0 0-6.6 0l-1.6 1.2a3.577 3.577 0 0 1-4.045.11L.444 52.073A5.622 5.622 0 0 0 6.8 51.9l1.6-1.2a3.6 3.6 0 0 1 4.2 0l1.6 1.2a5.652 5.652 0 0 0 6.6 0l1.6-1.2a3.6 3.6 0 0 1 4.2 0l1.6 1.2a5.652 5.652 0 0 0 6.6 0l1.6-1.2a3.6 3.6 0 0 1 4.2 0l1.6 1.2a5.652 5.652 0 0 0 6.6 0l1.6-1.2a3.6 3.6 0 0 1 4.2 0l1.73 1.3a5.049 5.049 0 0 0 3.008 1 4.98 4.98 0 0 0 3.545-1.468l.824-.825-1.414-1.414zm-6.282-1.4a5.508 5.508 0 0 0-1.911-.624A6.987 6.987 0 0 0 50 38.681V9a3 3 0 0 0-6 0v29.681a7 7 0 0 0-3.6 8.653l1.885-.668a5 5 0 0 1 3.05-6.374 1 1 0 0 0 .665-.943V9a1 1 0 0 1 2 0v30.349a1 1 0 0 0 .666.943 4.975 4.975 0 0 1 2.054 8.028 5.246 5.246 0 0 0-1.521.78l-1.6 1.2a3.6 3.6 0 0 1-4.2 0l-1.6-1.2a5.506 5.506 0 0 0-3.255-1.061 8.675 8.675 0 0 1-.456-1.754 8.938 8.938 0 0 1 3.512-8.473 1 1 0 0 0 .4-.8V8a5 5 0 0 1 10 0v29.014a1 1 0 0 0 .4.8 8.955 8.955 0 0 1 2.789 10.907zM22 14a8 8 0 1 0-8 8 8.009 8.009 0 0 0 8-8zm-8 6a6 6 0 1 1 6-6 6.006 6.006 0 0 1-6 6zM13 1h2v4h-2zM13 23h2v4h-2zM23 13h4v2h-4z"/><path d="M1 13h4v2H1zM20.29 6.295l2-2 1.414 1.414-2 2zM4.29 22.29l2-1.999 1.414 1.414-2 2zM20.288 21.706l1.414-1.414 2 2-1.415 1.414zM4.29 5.706l1.414-1.414 2 2L6.29 7.706z"/></svg>