<svg id="fi_5847940" height="512" viewBox="0 0 64 64" width="512" xmlns="http://www.w3.org/2000/svg" data-name="Layer 3"><path d="m61.469 60.117a3.089 3.089 0 0 1 -3.94.28l-1.729-1.297a5.652 5.652 0 0 0 -6.6 0l-1.6 1.2a3.6 3.6 0 0 1 -4.2 0l-1.6-1.2a5.652 5.652 0 0 0 -6.6 0l-1.6 1.2a3.6 3.6 0 0 1 -4.2 0l-1.6-1.2a5.652 5.652 0 0 0 -6.6 0l-1.6 1.2a3.6 3.6 0 0 1 -4.2 0l-1.6-1.2a5.652 5.652 0 0 0 -6.6 0l-1.6 1.2a3.579 3.579 0 0 1 -4.045.11l-1.111 1.663a5.622 5.622 0 0 0 6.356-.173l1.6-1.2a3.6 3.6 0 0 1 4.2 0l1.6 1.2a5.652 5.652 0 0 0 6.6 0l1.6-1.2a3.6 3.6 0 0 1 4.2 0l1.6 1.2a5.652 5.652 0 0 0 6.6 0l1.6-1.2a3.6 3.6 0 0 1 4.2 0l1.6 1.2a5.652 5.652 0 0 0 6.6 0l1.6-1.2a3.6 3.6 0 0 1 4.2 0l1.73 1.3a5.049 5.049 0 0 0 3.008 1 4.98 4.98 0 0 0 3.545-1.468l.824-.825-1.414-1.414z"></path><path d="m61.469 50.117a3.087 3.087 0 0 1 -3.94.28l-.694-.52a10.786 10.786 0 0 0 .926-7.134 5 5 0 0 0 5.122-1.211l.824-.825-1.414-1.414-.824.824a3.089 3.089 0 0 1 -3.939.28l-.889-.667a11 11 0 0 0 -2.641-3.201v-28.529a7 7 0 0 0 -14 0v28.529a11.072 11.072 0 0 0 -1.474 1.5 5.55 5.55 0 0 0 -3.326 1.071l-1.6 1.2a3.6 3.6 0 0 1 -4.2 0l-1.6-1.2a5.652 5.652 0 0 0 -6.6 0l-1.6 1.2a3.6 3.6 0 0 1 -4.2 0l-1.6-1.2a5.652 5.652 0 0 0 -6.6 0l-1.6 1.2a3.577 3.577 0 0 1 -4.045.11l-1.111 1.663a5.622 5.622 0 0 0 6.356-.173l1.6-1.2a3.6 3.6 0 0 1 4.2 0l1.6 1.2a5.652 5.652 0 0 0 6.6 0l1.6-1.2a3.6 3.6 0 0 1 4.2 0l1.6 1.2a5.5 5.5 0 0 0 6.6 0l1.6-1.2a3.45 3.45 0 0 1 .659-.378 11 11 0 0 0 -.95 6.237 10.628 10.628 0 0 0 .441 1.83 5.24 5.24 0 0 0 -1.35.711l-1.6 1.2a3.6 3.6 0 0 1 -4.2 0l-1.6-1.2a5.652 5.652 0 0 0 -6.6 0l-1.6 1.2a3.6 3.6 0 0 1 -4.2 0l-1.6-1.2a5.652 5.652 0 0 0 -6.6 0l-1.6 1.2a3.577 3.577 0 0 1 -4.045.11l-1.111 1.663a5.622 5.622 0 0 0 6.356-.173l1.6-1.2a3.6 3.6 0 0 1 4.2 0l1.6 1.2a5.652 5.652 0 0 0 6.6 0l1.6-1.2a3.6 3.6 0 0 1 4.2 0l1.6 1.2a5.652 5.652 0 0 0 6.6 0l1.6-1.2a3.6 3.6 0 0 1 4.2 0l1.6 1.2a5.652 5.652 0 0 0 6.6 0l1.6-1.2a3.6 3.6 0 0 1 4.2 0l1.73 1.3a5.049 5.049 0 0 0 3.008 1 4.98 4.98 0 0 0 3.545-1.468l.824-.825-1.414-1.414zm-6.282-1.4a5.508 5.508 0 0 0 -1.911-.624 6.987 6.987 0 0 0 -3.276-9.412v-29.681a3 3 0 0 0 -6 0v29.681a7 7 0 0 0 -3.6 8.653l1.885-.668a5 5 0 0 1 3.05-6.374 1 1 0 0 0 .665-.943v-30.349a1 1 0 0 1 2 0v30.349a1 1 0 0 0 .666.943 4.975 4.975 0 0 1 2.054 8.028 5.246 5.246 0 0 0 -1.521.78l-1.6 1.2a3.6 3.6 0 0 1 -4.2 0l-1.6-1.2a5.506 5.506 0 0 0 -3.255-1.061 8.675 8.675 0 0 1 -.456-1.754 8.938 8.938 0 0 1 3.512-8.473 1 1 0 0 0 .4-.8v-29.012a5 5 0 0 1 10 0v29.014a1 1 0 0 0 .4.8 8.955 8.955 0 0 1 2.789 10.907z"></path><path d="m22 14a8 8 0 1 0 -8 8 8.009 8.009 0 0 0 8-8zm-8 6a6 6 0 1 1 6-6 6.006 6.006 0 0 1 -6 6z"></path><path d="m13 1h2v4h-2z"></path><path d="m13 23h2v4h-2z"></path><path d="m23 13h4v2h-4z"></path><path d="m1 13h4v2h-4z"></path><path d="m20.586 5h2.828v2h-2.828z" transform="matrix(.707 -.707 .707 .707 2.201 17.314)"></path><path d="m4.586 21h2.828v2h-2.828z" transform="matrix(.707 -.707 .707 .707 -13.799 10.686)"></path><path d="m20.999 20.585h2v2.828h-2z" transform="matrix(.707 -.707 .707 .707 -9.112 21.999)"></path><path d="m4.999 4.584h2v2.829h-2z" transform="matrix(.707 -.707 .707 .707 -2.485 5.999)"></path></svg>