<svg xmlns="http://www.w3.org/2000/svg" width="512" height="512" viewBox="0 0 128 128"><path d="M34.625 36.75H28a1.75 1.75 0 0 0 0 3.5h6.625a1.75 1.75 0 0 0 0-3.5Z"/><path d="M118.5 4.75a4.756 4.756 0 0 0-4.75 4.75v18.917H96.421a4.743 4.743 0 0 0-9.363 1.083v1.25H38.25V27.5a7.759 7.759 0 0 0-7.75-7.75h-12a7.7 7.7 0 0 0-4.25 1.277V9.5a4.75 4.75 0 0 0-9.5 0v112a1.75 1.75 0 0 0 1.75 1.75h6a1.75 1.75 0 0 0 1.75-1.75v-10.25h72.808v10.25a1.749 1.749 0 0 0 1.75 1.75h6a1.75 1.75 0 0 0 1.75-1.75v-10.25h17.192v10.25a1.749 1.749 0 0 0 1.75 1.75h6a1.749 1.749 0 0 0 1.75-1.75V9.5a4.756 4.756 0 0 0-4.75-4.75Zm-4.75 66.333H96.558v-2.5h17.192Zm-17.192-6V56.25h17.192v8.833ZM113.75 52.75H96.558v-2.5h17.192ZM96.558 74.583h17.192v8.834H96.558Zm0 12.334h17.192v2.5H96.558ZM113.75 46.75H96.558v-8.833h17.192ZM96.558 92.917h17.192v8.833H96.558Zm17.192-58.5H96.558v-2.5h17.192ZM14.25 85.75V84.5a4.255 4.255 0 0 1 4.25-4.25h12a4.255 4.255 0 0 1 4.25 4.25v1.25Zm16.25-9h-12a7.7 7.7 0 0 0-4.25 1.277V56.25h72.808v29.5H38.25V84.5a7.759 7.759 0 0 0-7.75-7.75Zm56.558-24H14.25v-2.5h72.808ZM14.25 89.25h72.808v12.5H14.25Zm72.808-42.5H14.25v-12.5h72.808ZM18.5 23.25h12a4.255 4.255 0 0 1 4.25 4.25v3.25h-20.5V27.5a4.255 4.255 0 0 1 4.25-4.25Zm-7.75 96.5h-2.5V9.5a1.25 1.25 0 0 1 2.5 0Zm3.5-12v-2.5h72.808v2.5Zm78.808 12h-2.5V29.5a1.25 1.25 0 0 1 2.5 0Zm3.5-12v-2.5h17.192v2.5Zm23.192 12h-2.5V9.5a1.25 1.25 0 0 1 2.5 0Z"/></svg>