<svg xmlns="http://www.w3.org/2000/svg" xml:space="preserve" width="682.667" height="682.667"><defs><clipPath id="a" clipPathUnits="userSpaceOnUse"><path d="M0 512h512V0H0Z"/></clipPath></defs><path fill="none" stroke="#000" stroke-linecap="round" stroke-linejoin="round" stroke-miterlimit="10" stroke-width="19.99995" d="M242.561 192.277H45.02v-85.302H242.56zM440.105 192.277H242.563v-85.302h197.542zM637.648 192.277H440.105v-85.302h197.543z"/><path fill="none" stroke="#000" stroke-linecap="round" stroke-linejoin="round" stroke-miterlimit="10" stroke-width="19.99995" d="M341.333 193.176v-.902h197.548v85.312h-8.809M538.876 277.58h98.772M341.333 193.176v-.902H143.785v85.312h8.81M143.79 277.58H45.018M594.547 448.182h43.1v-85.3H580.46M102.208 362.883h-57.19v85.3H88.12M637.648 533.489h-43.1M45.019 533.489h43.1M45.019 618.791V106.976M637.654 618.786V106.973M594.547 618.791h-64.65M88.12 618.791h64.65"/><g clip-path="url(#a)" transform="matrix(1.33333 0 0 -1.33333 0 682.667)"><path fill="none" stroke="#000" stroke-linecap="round" stroke-linejoin="round" stroke-miterlimit="10" stroke-width="15" d="M453.99 7.5h50.51v40.41h-58.59v129.3c0 104.88-85.03 189.91-189.91 189.91-52.44 0-99.92-21.26-134.28-55.62-34.37-34.37-55.63-81.85-55.63-134.29V47.91H7.5V7.5h411.49"/><path fill="none" stroke="#000" stroke-linecap="round" stroke-linejoin="round" stroke-miterlimit="10" stroke-width="15" d="M316.61 47.907H195.39c-11.157 0-20.203 9.045-20.203 20.203s9.046 20.203 20.203 20.203h121.22c11.158 0 20.203-9.045 20.203-20.203s-9.045-20.203-20.203-20.203Z"/><path fill="none" stroke="#000" stroke-linecap="round" stroke-linejoin="round" stroke-miterlimit="10" stroke-width="15" d="M342.4 289.18c4.79-3.7 9.33-7.7 13.6-11.97 25.59-25.59 41.42-60.95 41.42-100V47.91H114.58v129.3c0 78.1 63.31 141.42 141.42 141.42 20.03 0 39.08-4.16 56.34-11.66M488.337 464.093v-32.325H23.662v32.325"/><path fill="none" stroke="#000" stroke-linecap="round" stroke-linejoin="round" stroke-miterlimit="10" stroke-width="15" d="M107 464.09h397.5v40.41H7.5v-40.41H72M256 258.02c39.396-20.203 60.61-75.623 60.61-109.097 0-33.474-27.136-60.61-60.61-60.61-33.474 0-60.61 27.136-60.61 60.61 0 0 0 28.285 24.244 47.478 0 0 3.031-19.193 20.203-19.193 31.315 0 16.163 80.813 16.163 80.813Z"/><path fill="none" stroke="#000" stroke-linecap="round" stroke-linejoin="round" stroke-miterlimit="10" stroke-width="15" d="M279.234 112.557c0-13.39-10.402-24.244-23.234-24.244-12.831 0-23.234 10.854-23.234 24.244S256 146.902 256 146.902s23.234-20.956 23.234-34.345Z"/></g></svg>