<svg xmlns="http://www.w3.org/2000/svg" width="512" height="512" viewBox="0 0 64 64"><path d="M59.849 42.136a7.942 7.942 0 0 0-3.183-1.423l-2.85-.57-.319-1.278a6.01 6.01 0 0 0 2.298-3.337l.508-.484a8.717 8.717 0 0 0 2.251-3.544A8.658 8.658 0 0 0 59 28.752a7.712 7.712 0 0 0-2-5.179V23c0-2.574-1.632-4.768-3.914-5.618a6.01 6.01 0 0 0 1.589-2.45C57.111 14.598 59 12.526 59 10c0-2.757-2.243-5-5-5a4.971 4.971 0 0 0-4.056 2.082A5.991 5.991 0 0 0 49 7c-3.309 0-6 2.691-6 6a5.98 5.98 0 0 0 1.912 4.38 5.964 5.964 0 0 0-3.135 2.687A12.11 12.11 0 0 0 40 18.081V17c0-2.574-1.632-4.768-3.914-5.618A5.982 5.982 0 0 0 38 7c0-3.309-2.691-6-6-6s-6 2.691-6 6c0 1.729.74 3.286 1.914 4.382C25.632 12.232 24 14.426 24 17v1.081a12.103 12.103 0 0 0-1.777 1.985 5.97 5.97 0 0 0-3.136-2.687A5.972 5.972 0 0 0 21 13c0-3.309-2.691-6-6-6s-6 2.691-6 6a5.98 5.98 0 0 0 1.914 4.381 6.013 6.013 0 0 0-3.58 3.699A3.001 3.001 0 0 0 5 24v4.752c0 .937.15 1.862.446 2.747a8.712 8.712 0 0 0 2.25 3.544l.509.485a6.014 6.014 0 0 0 2.298 3.337l-.319 1.278-2.85.57a7.924 7.924 0 0 0-3.182 1.423A7.919 7.919 0 0 0 1 48.439V63h62V48.439a7.92 7.92 0 0 0-3.151-6.303zm-40.054-6.607.205-.196v5.02c-.09.058-.183.112-.271.173l-1.913-.382-.319-1.278a6.014 6.014 0 0 0 2.298-3.337zm-2.585 6.533.63.126c-.331.365-.637.75-.915 1.157l-.936-.468zM13.721 46l-.498-1.493.777-.389 1.951.975c-.131.296-.249.598-.354.906h-1.876zm-2.305-.59.504 1.513-.286.572-.931-1.729zM13.618 48h1.503A11.262 11.262 0 0 0 15 49.579v.454l-1 1.857-1.206-2.241zM15 54.252l.207-.384A1.996 1.996 0 0 0 17 55v6h-2zM19 55h2.427c.126.468.269.932.451 1.387L23 59.192V61h-4zm4.735.644A10.21 10.21 0 0 1 23 51.829a10.3 10.3 0 0 1 .526-3.248l.422-1.265-1.896-.633-.423 1.265A12.284 12.284 0 0 0 21.056 53H17v-3.421a8.953 8.953 0 0 1 7.632-8.896l.128-.02L31 52.252V61h-6v-2.192zM32 23.634a9.632 9.632 0 0 0 5.339 3.054l.661.132v3.389A5.798 5.798 0 0 1 32.21 36h-.176C28.707 36 26 33.308 26 29.998V26.82l.661-.132A9.632 9.632 0 0 0 32 23.634zm-2.209 14.043a8.064 8.064 0 0 0 2.243.323h.176a7.78 7.78 0 0 0 2.013-.273 3.958 3.958 0 0 0 2.93 2.594L35.172 44h-6.344l-1.981-3.679a3.954 3.954 0 0 0 2.944-2.644zM32 49.891 29.905 46h4.19zm1 2.362 6.241-11.589.128.02A8.951 8.951 0 0 1 47 49.579V53h-4.055a12.256 12.256 0 0 0-.575-5.052l-.422-1.265-1.896.633.421 1.264a10.283 10.283 0 0 1-.208 7.064L39 58.808V61h-6zm11-16.92.205.195a6.014 6.014 0 0 0 2.298 3.337l-.319 1.278-1.913.382c-.088-.061-.181-.115-.271-.173zM50.279 46h-1.876a10.765 10.765 0 0 0-.354-.906L50 44.118l.777.389zm-3.204-2.656a10.992 10.992 0 0 0-.915-1.157l.63-.126 1.222.814zM41 59.192l1.122-2.805c.182-.454.326-.919.451-1.387H45v6h-4zM47 55c.79 0 1.469-.465 1.793-1.132l.207.384V61h-2zm3-3.11-1-1.857v-.454c0-.537-.048-1.062-.122-1.579h1.503l.825 1.65zm2.366-4.394-.286-.572.504-1.513.713.357zm2.724-5.058-.844 1.567-2.257-1.129 1.222-.814zm-3.231-1.879L50 41.798l-1.859-1.24.199-.797c.528.153 1.084.239 1.66.239s1.132-.086 1.66-.239zM54 34c0 2.206-1.794 4-4 4s-4-1.794-4-4v-1.877c0-1.379.935-2.576 2.273-2.91l.082-.021a4.434 4.434 0 0 0 2.473 1.222l2.313.331c.49.069.859.495.859.989zm2.657-3.132A6.685 6.685 0 0 1 56 32.26v-.526a3.013 3.013 0 0 0-2.575-2.969l-2.313-.331A2.47 2.47 0 0 1 49 26h-2c0 .501.085.987.242 1.442A4.993 4.993 0 0 0 44 32.123V27c0-.455-.031-.903-.081-1.346A5.763 5.763 0 0 1 48.752 23h2.496A5.759 5.759 0 0 1 57 28.752c0 .722-.115 1.433-.343 2.116zM51 19c0 1.103-.897 2-2 2s-2-.897-2-2zm3.82 2.879a7.686 7.686 0 0 0-2.428-.785c.29-.468.478-.998.554-1.567a3.99 3.99 0 0 1 1.874 2.352zM49 17c-2.206 0-4-1.794-4-4h8c0 2.206-1.794 4-4 4zm5-10c1.654 0 3 1.346 3 3 0 1.293-.827 2.387-2.01 2.807a5.998 5.998 0 0 0-3.018-5.012A2.984 2.984 0 0 1 54 7zm-5 2c1.474 0 2.75.81 3.444 2h-6.887C46.25 9.81 47.526 9 49 9zm-3.948 10.516c.1.766.414 1.459.885 2.026a7.807 7.807 0 0 0-2.569 1.645c-.094-.28-.19-.558-.304-.828a3.972 3.972 0 0 1 1.988-2.843zm-7.093-2.917a11.927 11.927 0 0 0-2.808-1.165c.421-.544.7-1.193.795-1.907a3.98 3.98 0 0 1 2.013 3.072zM30 13h4c0 1.103-.897 2-2 2s-2-.897-2-2zm2-2c-2.206 0-4-1.794-4-4h8c0 2.206-1.794 4-4 4zm0-8c1.474 0 2.75.81 3.444 2h-6.887C29.25 3.81 30.526 3 32 3zm-3.947 10.527c.095.714.374 1.363.795 1.907-.993.271-1.935.663-2.808 1.165a3.983 3.983 0 0 1 2.013-3.072zM32 17c5.514 0 10 4.486 10 10v12.337a11.146 11.146 0 0 0-2.327-.63l-1.977-.304a1.984 1.984 0 0 1-1.617-1.442 7.79 7.79 0 0 0 3.92-6.752V25.18l-2.269-.454a7.637 7.637 0 0 1-4.731-3.054V19h-2v2.672a7.643 7.643 0 0 1-4.731 3.054L24 25.18v4.818c0 2.924 1.588 5.479 3.945 6.875a1.984 1.984 0 0 1-1.641 1.53l-1.977.304c-.814.125-1.589.345-2.327.63V27c0-5.514 4.486-10 10-10zm-11.065 5.359c-.071.168-.125.343-.189.514a7.035 7.035 0 0 0-2.545-1.5 3.955 3.955 0 0 0 .746-1.858 3.965 3.965 0 0 1 1.988 2.844zM13 19h4c0 1.103-.897 2-2 2s-2-.897-2-2zm2-2c-2.206 0-4-1.794-4-4h8c0 2.206-1.794 4-4 4zm0-8c1.474 0 2.75.81 3.444 2h-6.887C12.25 9.81 13.526 9 15 9zm-3.948 10.512A3.95 3.95 0 0 0 11.557 21H9.543a4.013 4.013 0 0 1 1.509-1.488zM7.343 30.867A6.655 6.655 0 0 1 7 28.752V24c0-.551.448-1 1-1h8c1.666 0 3.221.849 4.146 2.224A12.088 12.088 0 0 0 20 27v5.123a4.992 4.992 0 0 0-3.242-4.681c.157-.455.242-.941.242-1.442h-2a2.472 2.472 0 0 1-2.111 2.435l-2.313.331A3.012 3.012 0 0 0 8 31.734v.526a6.693 6.693 0 0 1-.657-1.393zm2.657.867c0-.494.369-.92.858-.99l2.313-.331a4.443 4.443 0 0 0 2.473-1.222l.083.021A2.997 2.997 0 0 1 18 32.123V34c0 2.206-1.794 4-4 4s-4-1.794-4-4zM14 40c.576 0 1.132-.086 1.66-.239l.199.797L14 41.798l-1.859-1.24.199-.797A5.952 5.952 0 0 0 14 40zm-3.21 2.062 1.222.814-2.257 1.129-.845-1.567zM3 48.439c0-1.841.879-3.599 2.353-4.704a5.89 5.89 0 0 1 1.542-.821L13 54.253V61H7V50H5v11H3zM61 61h-2V50h-2v11h-6v-6.747l6.105-11.338a5.897 5.897 0 0 1 1.543.821A5.906 5.906 0 0 1 61 48.439z"/><path d="M32 34a4.212 4.212 0 0 0 3.789-2.342l.105-.211-1.789-.895-.105.212c-.381.762-1.147 1.236-2 1.236s-1.619-.474-2-1.236l-.105-.211-1.789.895.105.21A4.212 4.212 0 0 0 32 34z"/></svg>