<svg xmlns="http://www.w3.org/2000/svg" data-name="Layer 1" viewBox="0 0 64 64"><path d="M8.161 32.061h2.286l3.247 3.247c.67.67 1.04 1.562 1.04 2.51v18.633A5.555 5.555 0 0 0 20.283 62H50.903a1 1 0 0 0 .942-1.335l-4.19-11.775C54.148 46.663 58.6 40.506 58.6 33.545v-5.772a1 1 0 0 0-1-1H23.478V4.761A2.765 2.765 0 0 0 20.717 2H8.161A2.765 2.765 0 0 0 5.4 4.761v24.538a2.765 2.765 0 0 0 2.761 2.761zm8.573 24.39V37.818a5.514 5.514 0 0 0-1.625-3.924l-1.833-1.833h8.202v1.484c0 6.966 4.457 13.126 10.945 15.345L28.47 59.999h-8.186a3.553 3.553 0 0 1-3.549-3.549zm13.858 3.55L34.35 49.44c.016.003.032.004.048.008a15.368 15.368 0 0 0 1.804.268c.503.047 1.011.079 1.526.079h4.623c.517 0 1.026-.032 1.529-.079.114-.011.228-.021.342-.035.495-.057.984-.132 1.461-.234l.046-.007 3.758 10.561zM56.6 33.546c0 6.423-4.315 12.072-10.509 13.743a13.651 13.651 0 0 1-3.741.507h-4.623c-1.303 0-2.562-.171-3.755-.511-6.179-1.667-10.495-7.316-10.495-13.739v-1.487H56.6zm0-4.772v1.285H23.478v-1.285zM7.4 4.761c0-.42.341-.761.761-.761h12.556c.42 0 .761.341.761.761v25.3H8.161A.761.761 0 0 1 7.4 29.3z"/><path d="M44.918 45.693c.074 0 .15-.008.226-.025 4.954-1.142 7.451-4.093 8.673-6.367a1 1 0 0 0-1.761-.947c-1.027 1.911-3.137 4.392-7.361 5.365a1 1 0 0 0 .224 1.974zM53.858 36.759a1 1 0 0 0 1.185-.773c.089-.426.113-.675.113-.675a1.001 1.001 0 0 0-1.99-.206 5.18 5.18 0 0 1-.081.47.998.998 0 0 0 .773 1.184zM14.439 13.419c1.985 0 3.6-1.615 3.6-3.6s-1.615-3.6-3.6-3.6-3.6 1.615-3.6 3.6 1.615 3.6 3.6 3.6zm0-5.2c.882 0 1.6.718 1.6 1.6s-.718 1.6-1.6 1.6-1.6-.718-1.6-1.6.718-1.6 1.6-1.6z"/></svg>