<?xml version="1.0" encoding="UTF-8" standalone="no"?>
<!-- Created with Inkscape (http://www.inkscape.org/) -->

<svg
   version="1.1"
   id="svg1479"
   xml:space="preserve"
   width="682.66669"
   height="682.66669"
   viewBox="0 0 682.66669 682.66669"
   xmlns="http://www.w3.org/2000/svg"
   xmlns:svg="http://www.w3.org/2000/svg"><defs
     id="defs1483"><clipPath
       clipPathUnits="userSpaceOnUse"
       id="clipPath1547"><path
         d="M 0,512 H 512 V 0 H 0 Z"
         id="path1545" /></clipPath></defs><g
     id="g1485"
     transform="matrix(1.3333333,0,0,-1.3333333,0,682.66667)"><path
       d="M 181.921,367.792 H 33.764 v 63.977 h 148.157 z"
       style="fill:none;stroke:#000000;stroke-width:15;stroke-linecap:round;stroke-linejoin:round;stroke-miterlimit:10;stroke-dasharray:none;stroke-opacity:1"
       id="path1487" /><path
       d="M 330.079,367.792 H 181.922 v 63.977 h 148.157 z"
       style="fill:none;stroke:#000000;stroke-width:15;stroke-linecap:round;stroke-linejoin:round;stroke-miterlimit:10;stroke-dasharray:none;stroke-opacity:1"
       id="path1489" /><path
       d="M 478.236,367.792 H 330.079 v 63.977 h 148.157 z"
       style="fill:none;stroke:#000000;stroke-width:15;stroke-linecap:round;stroke-linejoin:round;stroke-miterlimit:10;stroke-dasharray:none;stroke-opacity:1"
       id="path1491" /><g
       id="g1493"
       transform="translate(256,367.1177)"><path
         d="m 0,0 v 0.677 h 74.075 74.086 v -63.984 h -6.607"
         style="fill:none;stroke:#000000;stroke-width:15;stroke-linecap:round;stroke-linejoin:round;stroke-miterlimit:10;stroke-dasharray:none;stroke-opacity:1"
         id="path1495" /></g><g
       id="g1497"
       transform="translate(404.1572,303.8145)"><path
         d="M 0,0 H 74.079"
         style="fill:none;stroke:#000000;stroke-width:15;stroke-linecap:round;stroke-linejoin:round;stroke-miterlimit:10;stroke-dasharray:none;stroke-opacity:1"
         id="path1499" /></g><g
       id="g1501"
       transform="translate(256,367.1177)"><path
         d="m 0,0 v 0.677 h -74.075 -74.086 v -63.984 h 6.607"
         style="fill:none;stroke:#000000;stroke-width:15;stroke-linecap:round;stroke-linejoin:round;stroke-miterlimit:10;stroke-dasharray:none;stroke-opacity:1"
         id="path1503" /></g><g
       id="g1505"
       transform="translate(107.8428,303.8145)"><path
         d="M 0,0 H -74.079"
         style="fill:none;stroke:#000000;stroke-width:15;stroke-linecap:round;stroke-linejoin:round;stroke-miterlimit:10;stroke-dasharray:none;stroke-opacity:1"
         id="path1507" /></g><g
       id="g1509"
       transform="translate(445.9106,175.8638)"><path
         d="M 0,0 H 32.325 V 63.974 H -10.566"
         style="fill:none;stroke:#000000;stroke-width:15;stroke-linecap:round;stroke-linejoin:round;stroke-miterlimit:10;stroke-dasharray:none;stroke-opacity:1"
         id="path1511" /></g><g
       id="g1513"
       transform="translate(76.6558,239.8374)"><path
         d="m 0,0 h -42.892 v -63.974 h 32.326"
         style="fill:none;stroke:#000000;stroke-width:15;stroke-linecap:round;stroke-linejoin:round;stroke-miterlimit:10;stroke-dasharray:none;stroke-opacity:1"
         id="path1515" /></g><g
       id="g1517"
       transform="translate(478.2358,111.8833)"><path
         d="M 0,0 H -32.325"
         style="fill:none;stroke:#000000;stroke-width:15;stroke-linecap:round;stroke-linejoin:round;stroke-miterlimit:10;stroke-dasharray:none;stroke-opacity:1"
         id="path1519" /></g><g
       id="g1521"
       transform="translate(33.7642,111.8833)"><path
         d="M 0,0 H 32.325"
         style="fill:none;stroke:#000000;stroke-width:15;stroke-linecap:round;stroke-linejoin:round;stroke-miterlimit:10;stroke-dasharray:none;stroke-opacity:1"
         id="path1523" /></g><g
       id="g1525"
       transform="translate(33.7642,47.9067)"><path
         d="M 0,0 V 383.861"
         style="fill:none;stroke:#000000;stroke-width:15;stroke-linecap:round;stroke-linejoin:round;stroke-miterlimit:10;stroke-dasharray:none;stroke-opacity:1"
         id="path1527" /></g><g
       id="g1529"
       transform="translate(478.2402,47.9102)"><path
         d="M 0,0 V 383.86"
         style="fill:none;stroke:#000000;stroke-width:15;stroke-linecap:round;stroke-linejoin:round;stroke-miterlimit:10;stroke-dasharray:none;stroke-opacity:1"
         id="path1531" /></g><g
       id="g1533"
       transform="translate(445.9106,47.9067)"><path
         d="M 0,0 H -48.488"
         style="fill:none;stroke:#000000;stroke-width:15;stroke-linecap:round;stroke-linejoin:round;stroke-miterlimit:10;stroke-dasharray:none;stroke-opacity:1"
         id="path1535" /></g><g
       id="g1537"
       transform="translate(66.0894,47.9067)"><path
         d="M 0,0 H 48.488"
         style="fill:none;stroke:#000000;stroke-width:15;stroke-linecap:round;stroke-linejoin:round;stroke-miterlimit:10;stroke-dasharray:none;stroke-opacity:1"
         id="path1539" /></g><g
       id="g1541"><g
         id="g1543"
         clip-path="url(#clipPath1547)"><g
           id="g1549"
           transform="translate(453.9902,7.5)"><path
             d="M 0,0 H 50.51 V 40.41 H -8.08 v 129.3 c 0,104.88 -85.03,189.91 -189.91,189.91 -52.44,0 -99.92,-21.26 -134.28,-55.62 -34.37,-34.37 -55.63,-81.85 -55.63,-134.29 V 40.41 h -58.59 V 0 H -35"
             style="fill:none;stroke:#000000;stroke-width:15;stroke-linecap:round;stroke-linejoin:round;stroke-miterlimit:10;stroke-dasharray:none;stroke-opacity:1"
             id="path1551" /></g><g
           id="g1553"
           transform="translate(316.6099,47.9067)"><path
             d="m 0,0 h -121.22 c -11.157,0 -20.203,9.045 -20.203,20.203 0,11.158 9.046,20.203 20.203,20.203 H 0 c 11.158,0 20.203,-9.045 20.203,-20.203 C 20.203,9.045 11.158,0 0,0 Z"
             style="fill:none;stroke:#000000;stroke-width:15;stroke-linecap:round;stroke-linejoin:round;stroke-miterlimit:10;stroke-dasharray:none;stroke-opacity:1"
             id="path1555" /></g><g
           id="g1557"
           transform="translate(342.3999,289.1802)"><path
             d="m 0,0 c 4.79,-3.7 9.33,-7.7 13.6,-11.97 25.59,-25.59 41.42,-60.95 41.42,-100 v -129.3 h -282.84 v 129.3 c 0,78.1 63.31,141.42 141.42,141.42 20.03,0 39.08,-4.16 56.34,-11.66"
             style="fill:none;stroke:#000000;stroke-width:15;stroke-linecap:round;stroke-linejoin:round;stroke-miterlimit:10;stroke-dasharray:none;stroke-opacity:1"
             id="path1559" /></g><g
           id="g1561"
           transform="translate(488.3374,464.0933)"><path
             d="M 0,0 V -32.325 H -464.675 V 0"
             style="fill:none;stroke:#000000;stroke-width:15;stroke-linecap:round;stroke-linejoin:round;stroke-miterlimit:10;stroke-dasharray:none;stroke-opacity:1"
             id="path1563" /></g><g
           id="g1565"
           transform="translate(107,464.0898)"><path
             d="m 0,0 h 397.5 v 40.41 h -497 V 0 H -35"
             style="fill:none;stroke:#000000;stroke-width:15;stroke-linecap:round;stroke-linejoin:round;stroke-miterlimit:10;stroke-dasharray:none;stroke-opacity:1"
             id="path1567" /></g><g
           id="g1569"
           transform="translate(256,258.0205)"><path
             d="m 0,0 c 39.396,-20.204 60.61,-75.624 60.61,-109.098 0,-33.474 -27.136,-60.61 -60.61,-60.61 -33.474,0 -60.61,27.136 -60.61,60.61 0,0 0,28.285 24.244,47.478 0,0 3.031,-19.193 20.203,-19.193 C 15.152,-80.813 0,0 0,0 Z"
             style="fill:none;stroke:#000000;stroke-width:15;stroke-linecap:round;stroke-linejoin:round;stroke-miterlimit:10;stroke-dasharray:none;stroke-opacity:1"
             id="path1571" /></g><g
           id="g1573"
           transform="translate(279.2339,112.5571)"><path
             d="m 0,0 c 0,-13.39 -10.402,-24.244 -23.234,-24.244 -12.831,0 -23.234,10.854 -23.234,24.244 0,13.389 23.234,34.345 23.234,34.345 C -23.234,34.345 0,13.389 0,0 Z"
             style="fill:none;stroke:#000000;stroke-width:15;stroke-linecap:round;stroke-linejoin:round;stroke-miterlimit:10;stroke-dasharray:none;stroke-opacity:1"
             id="path1575" /></g></g></g></g></svg>
